:SAMPLES-PER-SECOND 30
:FULLY-SPECIFIED
:DEGREES
540
root  5.19661 37.7933 -10.776 18.4739 -64.533 3.9426
RightUpLeg  -56.3736 -25.717 11.4257
RightLeg  54.6246 -5.06998 -8.00781
RightFoot  -3.76551 -0.437903 6.30775
RightToes  2.91037e-010 0 -3.6325e-017
Spine  72.3754 -14.0091 0.0626521
Spine1  16.069 -5.84892 -26.1291
HEad  -26.3056 8.58876 3.71981
LeftShoulder1  0.01265 -1.12926 9.30137
LeftArm  -71.9521 -63.1782 26.6727
LeftForeArm  -22.4695 5.23409 0.599364
LeftHand  -0.244104 0.0205437 5.32207
RightShoulder  -1.16435 13.6614 -17.3694
RightArm  -96.4651 71.9714 -10.3271
RightForeArm  -24.6977 -0.422209 -8.77646
RightHand  0.150276 -3.4864 10.7811
LeftUpLeg  -54.4506 20.0705 -17.4469
LeftLeg  21.4504 -4.10913 -1.45426
LeftFoot  7.49125 -0.977838 5.62505
LeftToes  -1.10052e-010 1.3781e-010 -2.1811e-011
541
root  5.92816 37.5459 -11.4463 17.6512 -63.0093 3.99353
RightUpLeg  -51.6935 -24.1482 10.9969
RightLeg  56.6117 -2.15323 -4.03109
RightFoot  -6.94843 -0.301777 6.41309
RightToes  2.91037e-010 0 -3.6325e-017
Spine  72.0119 -13.8269 0.0938695
Spine1  16.8697 -5.54884 -25.8993
HEad  -25.5817 8.96627 3.00705
LeftShoulder1  0.0366891 -1.23122 8.75306
LeftArm  -70.933 -63.6004 24.5966
LeftForeArm  -21.5583 5.23694 0.733442
LeftHand  -0.244104 0.0205437 5.32207
RightShoulder  -1.01508 12.8576 -16.7115
RightArm  -97.1071 73.6766 -10.8741
RightForeArm  -24.2834 -0.385875 -8.37229
RightHand  0.184315 -2.83582 9.33353
LeftUpLeg  -55.1171 20.2582 -18.284
LeftLeg  20.3941 -5.86593 -2.08548
LeftFoot  10.2034 -1.09063 5.38944
LeftToes  -1.10052e-010 1.3781e-010 -2.1811e-011
542
root  6.68294 37.2417 -12.1701 16.5006 -61.7264 4.03004
RightUpLeg  -47.3096 -23.0475 11.5332
RightLeg  54.6264 -1.84025 -3.17185
RightFoot  -13.8457 -0.0296085 3.6692
RightToes  2.91037e-010 0 -3.6325e-017
Spine  71.6242 -13.6829 0.206774
Spine1  18.5232 -5.21684 -25.9503
HEad  -25.0141 9.93914 2.41207
LeftShoulder1  0.01739 -2.15349 9.22353
LeftArm  -66.49 -61.8475 23.0755
LeftForeArm  -24.5626 5.34116 -0.217854
LeftHand  -0.244104 0.0205437 5.32207
RightShoulder  -0.933855 11.4821 -16.7482
RightArm  -99.1227 75.7358 -11.8544
RightForeArm  -24.3572 -0.20668 -8.21658
RightHand  0.17561 -2.57852 7.96451
LeftUpLeg  -55.5984 20.5078 -18.9362
LeftLeg  19.6385 -7.37625 -2.58396
LeftFoot  13.1021 -1.30719 5.63273
LeftToes  -1.10052e-010 1.3781e-010 -2.1811e-011
543
root  7.49325 36.9731 -12.9213 15.4472 -60.9038 4.15121
RightUpLeg  -45.5679 -23.0256 13.1671
RightLeg  51.2122 -3.98597 -5.67663
RightFoot  -19.7397 -0.186732 -0.814224
RightToes  2.91037e-010 0 -3.6325e-017
Spine  71.1851 -13.1975 0.226214
Spine1  20.2095 -4.82397 -25.7344
HEad  -24.9401 10.9636 1.42714
LeftShoulder1  -0.123323 -6.76528 10.7665
LeftArm  -55.1337 -54.5768 22.4327
LeftForeArm  -34.0547 5.35942 -2.99894
LeftHand  -0.244104 0.0205437 5.32207
RightShoulder  -0.884771 9.54689 -17.3802
RightArm  -103.586 77.7118 -15.5058
RightForeArm  -25.143 -0.463668 -8.23196
RightHand  0.109586 -3.31521 7.43362
LeftUpLeg  -56.1682 21.4224 -19.9994
LeftLeg  18.1468 -9.86843 -3.28496
LeftFoot  16.4608 -1.12511 4.1755
LeftToes  -1.10052e-010 1.3781e-010 -2.1811e-011
544
root  8.35302 36.791 -13.6733 14.762 -60.1144 4.31953
RightUpLeg  -46.6865 -23.9768 15.4961
RightLeg  49.1561 -6.09913 -7.88242
RightFoot  -21.2216 -0.60403 -5.45161
RightToes  2.91037e-010 0 -3.6325e-017
Spine  70.8004 -13.2013 0.242658
Spine1  21.2634 -4.77979 -26.0817
HEad  -25.656 12.3918 0.193875
LeftShoulder1  -0.447024 -16.7177 11.7584
LeftArm  -40.1175 -41.3456 24.8974
LeftForeArm  -45.5069 3.70336 -6.74611
LeftHand  -0.244104 0.0205437 5.32207
RightShoulder  -0.88413 7.77495 -18.5882
RightArm  -111.761 79.0232 -22.9149
RightForeArm  -25.8718 -0.910626 -8.59619
RightHand  0.0328852 -4.45114 7.86639
LeftUpLeg  -56.8976 22.829 -20.8672
LeftLeg  15.9264 -13.3487 -4.46428
LeftFoot  20.0565 0.894816 -3.52279
LeftToes  -1.10052e-010 1.3781e-010 -2.1811e-011
545
root  9.18421 36.689 -14.3754 14.7969 -58.964 4.07812
RightUpLeg  -48.8118 -25.0908 17.8301
RightLeg  48.5515 -6.65863 -8.3665
RightFoot  -20.1177 -0.763723 -8.15027
RightToes  2.91037e-010 0 -3.6325e-017
Spine  70.4027 -13.9416 0.639345
Spine1  22.5121 -5.02903 -26.8571
HEad  -27.1847 14.3462 -0.949645
LeftShoulder1  1.28896 -33.4824 6.34091
LeftArm  -25.2624 -25.1002 36.195
LeftForeArm  -52.9116 -0.531442 -11.0926
LeftHand  -0.244104 0.0205437 5.32207
RightShoulder  -0.882875 5.97467 -20.1557
RightArm  -123.743 79.5928 -33.3194
RightForeArm  -26.1295 -0.721457 -9.28729
RightHand  0.00210913 -4.88075 8.07555
LeftUpLeg  -57.4375 23.8671 -20.1814
LeftLeg  14.3409 -16.1221 -5.70879
LeftFoot  21.7865 4.91332 -16.9839
LeftToes  -1.10052e-010 1.3781e-010 -2.1811e-011
546
root  9.96442 36.6981 -15.0238 15.0041 -57.5462 4.02676
RightUpLeg  -50.5037 -25.9592 19.5181
RightLeg  47.3502 -6.75801 -8.13614
RightFoot  -19.0151 -0.748141 -9.20527
RightToes  2.91037e-010 0 -3.6325e-017
Spine  69.825 -11.1958 1.81557
Spine1  23.0023 -3.89224 -20.6084
HEad  -26.3568 12.076 -3.56298
LeftShoulder1  14.951 -47.6526 -21.2731
LeftArm  -17.0521 -19.9659 59.0018
LeftForeArm  -54.7169 -4.48534 -16.3478
LeftHand  -0.244104 0.0205437 5.32207
RightShoulder  -0.581226 5.77675 -17.7534
RightArm  -120.871 76.7574 -36.3635
RightForeArm  -26.3962 -0.387239 -7.6745
RightHand  0.0311983 -4.37641 7.2217
LeftUpLeg  -58.2858 24.3586 -19.5653
LeftLeg  15.7857 -18.7997 -6.0666
LeftFoot  19.2929 7.41486 -27.1363
LeftToes  -1.10052e-010 1.3781e-010 -2.1811e-011
547
root  10.7499 36.8877 -15.6628 14.6277 -56.152 5.18091
RightUpLeg  -51.8713 -26.6725 20.5513
RightLeg  44.2328 -7.27662 -7.84131
RightFoot  -17.7664 -0.720756 -10.71
RightToes  2.91037e-010 0 -3.6325e-017
Spine  69.7111 0.260687 3.80302
Spine1  18.6084 0.525414 1.83901
HEad  -18.7953 -0.192991 -10.2646
LeftShoulder1  36.3675 -44.071 -65.8533
LeftArm  -11.3079 -34.5226 81.7913
LeftForeArm  -67.1971 -11.9471 -17.569
LeftHand  -0.244104 0.0205437 5.32207
RightShoulder  0.427449 10.6372 -5.74521
RightArm  -80.8957 66.5438 -22.2617
RightForeArm  -26.4695 -1.72023 -0.289018
RightHand  0.0687611 -3.67314 6.29349
LeftUpLeg  -57.6663 21.2701 -15.0017
LeftLeg  20.8631 -15.1406 -5.85695
LeftFoot  13.2951 5.66213 -25.6101
LeftToes  -1.10052e-010 1.3781e-010 -2.1811e-011
548
root  11.5278 37.1849 -16.2478 14.3656 -55.0853 6.763
RightUpLeg  -53.4897 -27.3523 21.694
RightLeg  40.179 -7.51811 -7.04847
RightFoot  -15.4749 -0.56445 -12.7077
RightToes  2.91037e-010 0 -3.6325e-017
Spine  72.1944 -1.7295 2.3775
Spine1  14.0951 -1.0441 -1.64456
HEad  -16.4609 4.36499 -9.45194
LeftShoulder1  31.3987 -36.0023 -67.6334
LeftArm  6.7081 -38.4114 90.5652
LeftForeArm  -89.6387 -21.2346 -12.8064
LeftHand  -0.244104 0.0205437 5.32207
RightShoulder  0.313572 12.5073 -7.45656
RightArm  -81.9684 67.3312 -20.0232
RightForeArm  -25.2553 -1.62066 -1.16877
RightHand  0.0147579 -4.68626 8.47645
LeftUpLeg  -56.8743 17.0369 -9.87601
LeftLeg  28.0134 -6.51056 -3.34865
LeftFoot  7.23174 2.51892 -15.6193
LeftToes  -1.10052e-010 1.3781e-010 -2.1811e-011
549
root  12.2714 37.4889 -16.7358 14.988 -54.1992 7.64413
RightUpLeg  -55.3712 -28.1693 23.4791
RightLeg  36.2754 -6.98928 -5.74992
RightFoot  -12.5419 -0.232814 -13.9226
RightToes  2.91037e-010 0 -3.6325e-017
Spine  69.3789 -0.536395 2.95178
Spine1  18.9477 0.0107373 0.531359
HEad  -17.9956 2.18823 -10.7092
LeftShoulder1  34.8613 -45.1142 -61.2653
LeftArm  -17.4531 -32.9151 79.9952
LeftForeArm  -61.4181 -9.83779 -18.6338
LeftHand  -0.244104 0.0205437 5.32207
RightShoulder  0.0229082 8.28388 -9.33457
RightArm  -88.8817 67.0277 -27.0726
RightForeArm  -25.9013 -1.87089 -1.7559
RightHand  -0.0760287 -5.78574 10.701
LeftUpLeg  -56.5797 14.5454 -6.8845
LeftLeg  35.5981 1.2694 1.31128
LeftFoot  3.52396 0.933413 -7.48732
LeftToes  -1.10052e-010 1.3781e-010 -2.1811e-011
550
root  12.9939 37.7801 -17.1758 16.1381 -53.1409 7.95456
RightUpLeg  -57.116 -29.2952 25.805
RightLeg  32.0429 -6.04151 -4.3191
RightFoot  -9.71373 0.144238 -14.6178
RightToes  2.91037e-010 0 -3.6325e-017
Spine  69.3202 -0.764298 3.0378
Spine1  18.5704 -0.192615 0.649542
HEad  -17.8919 2.69929 -11.1674
LeftShoulder1  32.9291 -44.3841 -58.9735
LeftArm  -37.7282 -35.8937 78.8614
LeftForeArm  -44.579 -1.13937 -19.1671
LeftHand  -0.244104 0.0205437 5.32207
RightShoulder  -0.0457771 7.85955 -10.068
RightArm  -91.4542 66.6628 -28.8838
RightForeArm  -26.3436 -1.59843 -2.21103
RightHand  -0.0982966 -6.00731 9.99095
LeftUpLeg  -56.0138 13.8487 -5.40899
LeftLeg  42.158 4.69185 4.86533
LeftFoot  1.3762 0.537118 -4.94355
LeftToes  -1.10052e-010 1.3781e-010 -2.1811e-011
